<?xml version="1.0" encoding="UTF-8" standalone="no"?>
<!DOCTYPE svg PUBLIC "-//W3C//DTD SVG 1.1//EN"
 "http://www.w3.org/Graphics/SVG/1.1/DTD/svg11.dtd">
<!-- Generated by graphviz version 2.43.0 (0)
 -->
<!-- Title: OperatorDAG Pages: 1 -->
<svg width="700pt" height="60pt"
 viewBox="0.00 0.00 700.00 60.00" xmlns="http://www.w3.org/2000/svg" xmlns:xlink="http://www.w3.org/1999/xlink">
<g id="graph0" class="graph" transform="scale(1 1) rotate(0) translate(4 56)">
<title>OperatorDAG</title>
<polygon fill="white" stroke="transparent" points="-4,4 -4,-56 696,-56 696,4 -4,4"/>
<!-- x -->
<g id="node1" class="node">
<title>x</title>
<polygon fill="none" stroke="black" points="112,-52 0,-52 0,0 112,0 112,-52"/>
<text text-anchor="middle" x="56" y="-40" font-family="Times,serif" font-size="10.00">x</text>
<text text-anchor="middle" x="56" y="-29" font-family="Times,serif" font-size="10.00">input</text>
<text text-anchor="middle" x="56" y="-18" font-family="Times,serif" font-size="10.00">torch.Size([1, 784])</text>
<text text-anchor="middle" x="56" y="-7" font-family="Times,serif" font-size="10.00">torch.float32</text>
</g>
<!-- linear -->
<g id="node2" class="node">
<title>linear</title>
<polygon fill="none" stroke="black" points="308,-52 148,-52 148,0 308,0 308,-52"/>
<text text-anchor="middle" x="228" y="-40" font-family="Times,serif" font-size="10.00">linear</text>
<text text-anchor="middle" x="228" y="-29" font-family="Times,serif" font-size="10.00">torch.ops.aten.linear.default</text>
<text text-anchor="middle" x="228" y="-18" font-family="Times,serif" font-size="10.00">torch.Size([1, 256])</text>
<text text-anchor="middle" x="228" y="-7" font-family="Times,serif" font-size="10.00">torch.float32</text>
</g>
<!-- x&#45;&gt;linear -->
<g id="edge1" class="edge">
<title>x&#45;&gt;linear</title>
<path fill="none" stroke="black" d="M112.19,-26C120.35,-26 128.92,-26 137.55,-26"/>
<polygon fill="black" stroke="black" points="137.69,-29.5 147.69,-26 137.69,-22.5 137.69,-29.5"/>
</g>
<!-- relu -->
<g id="node3" class="node">
<title>relu</title>
<polygon fill="none" stroke="black" points="496,-52 344,-52 344,0 496,0 496,-52"/>
<text text-anchor="middle" x="420" y="-40" font-family="Times,serif" font-size="10.00">relu</text>
<text text-anchor="middle" x="420" y="-29" font-family="Times,serif" font-size="10.00">torch.ops.aten.relu.default</text>
<text text-anchor="middle" x="420" y="-18" font-family="Times,serif" font-size="10.00">torch.Size([1, 256])</text>
<text text-anchor="middle" x="420" y="-7" font-family="Times,serif" font-size="10.00">torch.float32</text>
</g>
<!-- linear&#45;&gt;relu -->
<g id="edge2" class="edge">
<title>linear&#45;&gt;relu</title>
<path fill="none" stroke="black" d="M308.2,-26C316.6,-26 325.17,-26 333.63,-26"/>
<polygon fill="black" stroke="black" points="333.88,-29.5 343.88,-26 333.88,-22.5 333.88,-29.5"/>
</g>
<!-- linear_1 -->
<g id="node4" class="node">
<title>linear_1</title>
<polygon fill="none" stroke="black" points="692,-52 532,-52 532,0 692,0 692,-52"/>
<text text-anchor="middle" x="612" y="-40" font-family="Times,serif" font-size="10.00">linear_1</text>
<text text-anchor="middle" x="612" y="-29" font-family="Times,serif" font-size="10.00">torch.ops.aten.linear.default</text>
<text text-anchor="middle" x="612" y="-18" font-family="Times,serif" font-size="10.00">torch.Size([1, 10])</text>
<text text-anchor="middle" x="612" y="-7" font-family="Times,serif" font-size="10.00">torch.float32</text>
</g>
<!-- relu&#45;&gt;linear_1 -->
<g id="edge3" class="edge">
<title>relu&#45;&gt;linear_1</title>
<path fill="none" stroke="black" d="M496.09,-26C504.52,-26 513.16,-26 521.74,-26"/>
<polygon fill="black" stroke="black" points="521.77,-29.5 531.77,-26 521.77,-22.5 521.77,-29.5"/>
</g>
</g>
</svg>
